<?xml version="1.0" encoding="UTF-8" standalone="no"?>
<!DOCTYPE svg PUBLIC "-//W3C//DTD SVG 1.0//EN" "http://www.w3.org/TR/2001/PR-SVG-20010719/DTD/svg10.dtd">
<svg width="13cm" height="10cm" viewBox="23 4 258 198" xmlns="http://www.w3.org/2000/svg" xmlns:xlink="http://www.w3.org/1999/xlink">
  <g>
    <rect style="fill: #ffffff" x="121.793" y="5.10628" width="39.9117" height="21.5333"/>
    <rect style="fill: none; fill-opacity:0; stroke-width: 0.6; stroke: #000000" x="121.793" y="5.10628" width="39.9117" height="21.5333"/>
    <text font-size="6.77333" style="fill: #000000;text-anchor:middle;font-family:Times New Roman;font-style:normal;font-weight:normal" x="141.749" y="13.4063">
      <tspan x="141.749" y="13.4063">2</tspan>
      <tspan x="141.749" y="21.8729">Elaboration</tspan>
    </text>
  </g>
  <g>
    <rect style="fill: #ffffff" x="71.4052" y="37.5444" width="36.3" height="21.5333"/>
    <rect style="fill: none; fill-opacity:0; stroke-width: 0.6; stroke: #000000" x="71.4052" y="37.5444" width="36.3" height="21.5333"/>
    <text font-size="6.77333" style="fill: #000000;text-anchor:middle;font-family:Times New Roman;font-style:normal;font-weight:normal" x="89.5552" y="45.8444">
      <tspan x="89.5552" y="45.8444">2</tspan>
      <tspan x="89.5552" y="54.3111">Elaboration</tspan>
    </text>
  </g>
  <g>
    <rect style="fill: #ffffff" x="95.8052" y="71.7444" width="40.8999" height="21.5333"/>
    <rect style="fill: none; fill-opacity:0; stroke-width: 0.6; stroke-dasharray: 4; stroke: #000000" x="95.8052" y="71.7444" width="40.8999" height="21.5333"/>
    <text font-size="6.77333" style="fill: #000000;text-anchor:middle;font-family:Times New Roman;font-style:normal;font-weight:normal" x="116.255" y="80.0444">
      <tspan x="116.255" y="80.0444">3</tspan>
      <tspan x="116.255" y="88.5111">Elaboration</tspan>
    </text>
  </g>
  <g>
    <rect style="fill: #ffffff" x="192.205" y="38.9444" width="48.35" height="21.5333"/>
    <rect style="fill: none; fill-opacity:0; stroke-width: 0.6; stroke-dasharray: 4; stroke: #000000" x="192.205" y="38.9444" width="48.35" height="21.5333"/>
    <text font-size="6.77333" style="fill: #000000;text-anchor:middle;font-family:Times New Roman;font-style:normal;font-weight:normal" x="216.38" y="47.2444">
      <tspan x="216.38" y="47.2444">8</tspan>
      <tspan x="216.38" y="55.7111">Exemplification</tspan>
    </text>
  </g>
  <g>
    <rect style="fill: #ffffff" x="166.605" y="71.1444" width="35.9" height="21.5333"/>
    <rect style="fill: none; fill-opacity:0; stroke-width: 0.6; stroke: #000000" x="166.605" y="71.1444" width="35.9" height="21.5333"/>
    <text font-size="6.77333" style="fill: #000000;text-anchor:middle;font-family:Times New Roman;font-style:normal;font-weight:normal" x="184.555" y="79.4444">
      <tspan x="184.555" y="79.4444">8</tspan>
      <tspan x="184.555" y="87.9111">Concession</tspan>
    </text>
  </g>
  <g>
    <rect style="fill: #ffffff" x="236.004" y="69.8444" width="36.6999" height="21.5333"/>
    <rect style="fill: none; fill-opacity:0; stroke-width: 0.6; stroke-dasharray: 4; stroke: #000000" x="236.004" y="69.8444" width="36.6999" height="21.5333"/>
    <text font-size="6.77333" style="fill: #000000;text-anchor:middle;font-family:Times New Roman;font-style:normal;font-weight:normal" x="254.354" y="78.1444">
      <tspan x="254.354" y="78.1444">10</tspan>
      <tspan x="254.354" y="86.6111">Antithesis</tspan>
    </text>
  </g>
  <g>
    <rect style="fill: #ffffff" x="29.9054" y="71.0444" width="37.85" height="21.5333"/>
    <rect style="fill: none; fill-opacity:0; stroke-width: 0.6; stroke: #000000" x="29.9054" y="71.0444" width="37.85" height="21.5333"/>
    <text font-size="6.77333" style="fill: #000000;text-anchor:middle;font-family:Times New Roman;font-style:normal;font-weight:normal" x="48.8304" y="79.3444">
      <tspan x="48.8304" y="79.3444">2</tspan>
      <tspan x="48.8304" y="87.8111">Justification</tspan>
    </text>
  </g>
  <g>
    <rect style="fill: #ffffff" x="118.805" y="112.744" width="33.8999" height="21.5333"/>
    <rect style="fill: none; fill-opacity:0; stroke-width: 0.6; stroke-dasharray: 4; stroke: #000000" x="118.805" y="112.744" width="33.8999" height="21.5333"/>
    <text font-size="6.77333" style="fill: #000000;text-anchor:middle;font-family:Times New Roman;font-style:normal;font-weight:normal" x="135.755" y="121.044">
      <tspan x="135.755" y="121.044">4            5</tspan>
      <tspan x="135.755" y="129.511">Contrast</tspan>
    </text>
  </g>
  <g>
    <rect style="fill: #ffffff" x="139.805" y="152.744" width="35.3999" height="21.5333"/>
    <rect style="fill: none; fill-opacity:0; stroke-width: 0.6; stroke: #000000" x="139.805" y="152.744" width="35.3999" height="21.5333"/>
    <text font-size="6.77333" style="fill: #000000;text-anchor:middle;font-family:Times New Roman;font-style:normal;font-weight:normal" x="157.505" y="161.044">
      <tspan x="157.505" y="161.044">5</tspan>
      <tspan x="157.505" y="169.511">Evidence</tspan>
    </text>
  </g>
  <g>
    <rect style="fill: #ffffff" x="266.104" y="115.144" width="14.6" height="13.0667"/>
    <rect style="fill: none; fill-opacity:0; stroke-width: 0.6; stroke: #000000" x="266.104" y="115.144" width="14.6" height="13.0667"/>
    <text font-size="6.77333" style="fill: #000000;text-anchor:middle;font-family:Times New Roman;font-style:normal;font-weight:normal" x="273.404" y="123.444">
      <tspan x="273.404" y="123.444">10</tspan>
    </text>
  </g>
  <g>
    <rect style="fill: #ffffff" x="229.404" y="116.044" width="14.6" height="13.0667"/>
    <rect style="fill: none; fill-opacity:0; stroke-width: 0.6; stroke-dasharray: 4; stroke: #000000" x="229.404" y="116.044" width="14.6" height="13.0667"/>
    <text font-size="6.77333" style="fill: #000000;text-anchor:middle;font-family:Times New Roman;font-style:normal;font-weight:normal" x="236.704" y="124.344">
      <tspan x="236.704" y="124.344">9</tspan>
    </text>
  </g>
  <g>
    <rect style="fill: #ffffff" x="192.805" y="116.744" width="14.6" height="13.0667"/>
    <rect style="fill: none; fill-opacity:0; stroke-width: 0.6; stroke: #000000" x="192.805" y="116.744" width="14.6" height="13.0667"/>
    <text font-size="6.77333" style="fill: #000000;text-anchor:middle;font-family:Times New Roman;font-style:normal;font-weight:normal" x="200.105" y="125.044">
      <tspan x="200.105" y="125.044">8</tspan>
    </text>
  </g>
  <g>
    <rect style="fill: #ffffff" x="162.205" y="116.444" width="14.6" height="13.0667"/>
    <rect style="fill: none; fill-opacity:0; stroke-width: 0.6; stroke-dasharray: 4; stroke: #000000" x="162.205" y="116.444" width="14.6" height="13.0667"/>
    <text font-size="6.77333" style="fill: #000000;text-anchor:middle;font-family:Times New Roman;font-style:normal;font-weight:normal" x="169.505" y="124.744">
      <tspan x="169.505" y="124.744">7</tspan>
    </text>
  </g>
  <g>
    <rect style="fill: #ffffff" x="167.605" y="188.644" width="14.6" height="13.0667"/>
    <rect style="fill: none; fill-opacity:0; stroke-width: 0.6; stroke-dasharray: 4; stroke: #000000" x="167.605" y="188.644" width="14.6" height="13.0667"/>
    <text font-size="6.77333" style="fill: #000000;text-anchor:middle;font-family:Times New Roman;font-style:normal;font-weight:normal" x="174.905" y="196.944">
      <tspan x="174.905" y="196.944">6</tspan>
    </text>
  </g>
  <g>
    <rect style="fill: #ffffff" x="130.505" y="188.344" width="14.6" height="13.0667"/>
    <rect style="fill: none; fill-opacity:0; stroke-width: 0.6; stroke: #000000" x="130.505" y="188.344" width="14.6" height="13.0667"/>
    <text font-size="6.77333" style="fill: #000000;text-anchor:middle;font-family:Times New Roman;font-style:normal;font-weight:normal" x="137.805" y="196.644">
      <tspan x="137.805" y="196.644">5</tspan>
    </text>
  </g>
  <g>
    <rect style="fill: #ffffff" x="112.405" y="156.044" width="14.6" height="13.0667"/>
    <rect style="fill: none; fill-opacity:0; stroke-width: 0.6; stroke: #000000" x="112.405" y="156.044" width="14.6" height="13.0667"/>
    <text font-size="6.77333" style="fill: #000000;text-anchor:middle;font-family:Times New Roman;font-style:normal;font-weight:normal" x="119.705" y="164.344">
      <tspan x="119.705" y="164.344">4</tspan>
    </text>
  </g>
  <g>
    <rect style="fill: #ffffff" x="92.8052" y="116.744" width="14.6" height="13.0667"/>
    <rect style="fill: none; fill-opacity:0; stroke-width: 0.6; stroke: #000000" x="92.8052" y="116.744" width="14.6" height="13.0667"/>
    <text font-size="6.77333" style="fill: #000000;text-anchor:middle;font-family:Times New Roman;font-style:normal;font-weight:normal" x="100.105" y="125.044">
      <tspan x="100.105" y="125.044">3</tspan>
    </text>
  </g>
  <g>
    <rect style="fill: #ffffff" x="52.2052" y="118.444" width="14.6" height="13.0667"/>
    <rect style="fill: none; fill-opacity:0; stroke-width: 0.6; stroke: #000000" x="52.2052" y="118.444" width="14.6" height="13.0667"/>
    <text font-size="6.77333" style="fill: #000000;text-anchor:middle;font-family:Times New Roman;font-style:normal;font-weight:normal" x="59.5052" y="126.744">
      <tspan x="59.5052" y="126.744">2</tspan>
    </text>
  </g>
  <g>
    <rect style="fill: #ffffff" x="23.6054" y="119.144" width="14.6" height="13.0667"/>
    <rect style="fill: none; fill-opacity:0; stroke-width: 0.6; stroke-dasharray: 4; stroke: #000000" x="23.6054" y="119.144" width="14.6" height="13.0667"/>
    <text font-size="6.77333" style="fill: #000000;text-anchor:middle;font-family:Times New Roman;font-style:normal;font-weight:normal" x="30.9054" y="127.444">
      <tspan x="30.9054" y="127.444">1</tspan>
    </text>
  </g>
  <g>
    <line style="fill: none; fill-opacity:0; stroke-width: 0.6; stroke: #000000" x1="141.749" y1="26.6396" x2="93.1484" y2="36.7937"/>
    <polygon style="fill: #000000" points="90.2118,37.4072 93.7183,34.6314 93.1484,36.7937 94.5363,38.5469 "/>
    <polygon style="fill: none; fill-opacity:0; stroke-width: 0.6; stroke: #000000" points="90.2118,37.4072 93.7183,34.6314 93.1484,36.7937 94.5363,38.5469 "/>
  </g>
  <g>
    <line style="fill: none; fill-opacity:0; stroke-width: 0.6; stroke: #000000" x1="89.5552" y1="59.0778" x2="52.3523" y2="70.0095"/>
    <polygon style="fill: #000000" points="49.474,70.8553 52.7479,67.8087 52.3523,70.0095 53.8756,71.6465 "/>
    <polygon style="fill: none; fill-opacity:0; stroke-width: 0.6; stroke: #000000" points="49.474,70.8553 52.7479,67.8087 52.3523,70.0095 53.8756,71.6465 "/>
  </g>
  <g>
    <line style="fill: none; fill-opacity:0; stroke-width: 0.6; stroke: #000000" x1="48.8304" y1="92.5778" x2="58.1049" y2="115.051"/>
    <polygon style="fill: #000000" points="59.2493,117.824 55.8746,114.89 58.1049,115.051 59.5721,113.364 "/>
    <polygon style="fill: none; fill-opacity:0; stroke-width: 0.6; stroke: #000000" points="59.2493,117.824 55.8746,114.89 58.1049,115.051 59.5721,113.364 "/>
  </g>
  <g>
    <line style="fill: none; fill-opacity:0; stroke-width: 0.6; stroke: #000000" x1="216.38" y1="60.4778" x2="188.036" y2="69.9779"/>
    <polygon style="fill: #000000" points="185.191,70.9312 188.348,67.7637 188.036,69.9779 189.619,71.5564 "/>
    <polygon style="fill: none; fill-opacity:0; stroke-width: 0.6; stroke: #000000" points="185.191,70.9312 188.348,67.7637 188.036,69.9779 189.619,71.5564 "/>
  </g>
  <g>
    <line style="fill: none; fill-opacity:0; stroke-width: 0.6; stroke: #000000" x1="184.555" y1="92.6778" x2="198.112" y2="113.661"/>
    <polygon style="fill: #000000" points="199.74,116.181 195.889,113.907 198.112,113.661 199.249,111.736 "/>
    <polygon style="fill: none; fill-opacity:0; stroke-width: 0.6; stroke: #000000" points="199.74,116.181 195.889,113.907 198.112,113.661 199.249,111.736 "/>
  </g>
  <g>
    <line style="fill: none; fill-opacity:0; stroke-width: 0.6; stroke: #000000" x1="254.354" y1="91.3778" x2="271.108" y2="112.28"/>
    <polygon style="fill: #000000" points="272.984,114.621 268.922,112.751 271.108,112.28 272.043,110.249 "/>
    <polygon style="fill: none; fill-opacity:0; stroke-width: 0.6; stroke: #000000" points="272.984,114.621 268.922,112.751 271.108,112.28 272.043,110.249 "/>
  </g>
  <g>
    <line style="fill: none; fill-opacity:0; stroke-width: 0.6; stroke: #000000" x1="135.755" y1="134.278" x2="121.884" y2="153.09"/>
    <polygon style="fill: #000000" points="120.103,155.504 120.867,151.098 121.884,153.09 124.087,153.472 "/>
    <polygon style="fill: none; fill-opacity:0; stroke-width: 0.6; stroke: #000000" points="120.103,155.504 120.867,151.098 121.884,153.09 124.087,153.472 "/>
  </g>
  <g>
    <line style="fill: none; fill-opacity:0; stroke-width: 0.6; stroke: #000000" x1="135.755" y1="134.278" x2="154.707" y2="150.368"/>
    <polygon style="fill: #000000" points="156.994,152.31 152.65,151.246 154.707,150.368 155.239,148.197 "/>
    <polygon style="fill: none; fill-opacity:0; stroke-width: 0.6; stroke: #000000" points="156.994,152.31 152.65,151.246 154.707,150.368 155.239,148.197 "/>
  </g>
  <g>
    <line style="fill: none; fill-opacity:0; stroke-width: 0.6; stroke: #000000" x1="157.505" y1="174.278" x2="140.792" y2="186.211"/>
    <polygon style="fill: #000000" points="138.351,187.954 140.444,184.002 140.792,186.211 142.768,187.258 "/>
    <polygon style="fill: none; fill-opacity:0; stroke-width: 0.6; stroke: #000000" points="138.351,187.954 140.444,184.002 140.792,186.211 142.768,187.258 "/>
  </g>
  <line style="fill: none; fill-opacity:0; stroke-width: 0.6; stroke-dasharray: 4; stroke: #000000" x1="216.38" y1="38.9444" x2="141.749" y2="26.6396"/>
  <line style="fill: none; fill-opacity:0; stroke-width: 0.6; stroke-dasharray: 4; stroke: #000000" x1="254.354" y1="69.8444" x2="216.38" y2="60.4778"/>
  <line style="fill: none; fill-opacity:0; stroke-width: 0.6; stroke-dasharray: 4; stroke: #000000" x1="254.354" y1="91.3778" x2="236.704" y2="116.044"/>
  <line style="fill: none; fill-opacity:0; stroke-width: 0.6; stroke-dasharray: 4; stroke: #000000" x1="184.555" y1="92.6778" x2="169.505" y2="116.444"/>
  <line style="fill: none; fill-opacity:0; stroke-width: 0.6; stroke-dasharray: 4; stroke: #000000" x1="116.255" y1="93.2778" x2="135.755" y2="112.744"/>
  <line style="fill: none; fill-opacity:0; stroke-width: 0.6; stroke-dasharray: 4; stroke: #000000" x1="174.905" y1="188.644" x2="157.505" y2="174.278"/>
  <line style="fill: none; fill-opacity:0; stroke-width: 0.6; stroke-dasharray: 4; stroke: #000000" x1="48.8304" y1="92.5778" x2="30.9054" y2="119.144"/>
  <line style="fill: none; fill-opacity:0; stroke-width: 0.6; stroke-dasharray: 4; stroke: #000000" x1="116.255" y1="71.7444" x2="89.5552" y2="59.0778"/>
  <g>
    <line style="fill: none; fill-opacity:0; stroke-width: 0.6; stroke: #000000" x1="116.255" y1="93.2778" x2="102.186" y2="113.72"/>
    <polygon style="fill: #000000" points="100.486,116.192 101.106,111.763 102.186,113.72 104.401,114.031 "/>
    <polygon style="fill: none; fill-opacity:0; stroke-width: 0.6; stroke: #000000" points="100.486,116.192 101.106,111.763 102.186,113.72 104.401,114.031 "/>
  </g>
</svg>
