<?xml version="1.0" encoding="UTF-8" standalone="no"?>
<svg
   xmlns:dc="http://purl.org/dc/elements/1.1/"
   xmlns:cc="http://creativecommons.org/ns#"
   xmlns:rdf="http://www.w3.org/1999/02/22-rdf-syntax-ns#"
   xmlns:svg="http://www.w3.org/2000/svg"
   xmlns="http://www.w3.org/2000/svg"
   xmlns:sodipodi="http://sodipodi.sourceforge.net/DTD/sodipodi-0.dtd"
   xmlns:inkscape="http://www.inkscape.org/namespaces/inkscape"
   width="7cm"
   height="3cm"
   viewBox="0 0 139 60"
   id="svg2"
   version="1.1"
   inkscape:version="0.48.3.1 r9886"
   sodipodi:docname="meth-pyramids.svg">
  <metadata
     id="metadata96">
    <rdf:RDF>
      <cc:Work
         rdf:about="">
        <dc:format>image/svg+xml</dc:format>
        <dc:type
           rdf:resource="http://purl.org/dc/dcmitype/StillImage" />
      </cc:Work>
    </rdf:RDF>
  </metadata>
  <defs
     id="defs94" />
  <sodipodi:namedview
     pagecolor="#ffffff"
     bordercolor="#666666"
     borderopacity="1"
     objecttolerance="10"
     gridtolerance="10"
     guidetolerance="10"
     inkscape:pageopacity="0"
     inkscape:pageshadow="2"
     inkscape:window-width="1366"
     inkscape:window-height="711"
     id="namedview92"
     showgrid="false"
     inkscape:zoom="3.626313"
     inkscape:cx="119.78736"
     inkscape:cy="49.826646"
     inkscape:window-x="-5"
     inkscape:window-y="-10"
     inkscape:window-maximized="1"
     inkscape:current-layer="svg2" />
  <text
     font-size="12.4178"
     style="fill: #000000;text-anchor:start;font-family:Times New Roman;font-style:normal;font-weight:normal"
     x="121.584"
     y="12.0055"
     id="text4">
    <tspan
       x="121.584"
       y="12.0055"
       id="tspan6" />
  </text>
  <g
     id="g8"
     transform="translate(0,-1.1288889)">
    <polygon
       style="fill:#ffffff"
       points="120.845,60.2718 61.2713,2.05678 1.69757,60.2718 "
       id="polygon10" />
    <polygon
       style="fill:none;stroke:#000000;stroke-width:0.60000002"
       points="120.845,60.2718 61.2713,2.05678 1.69757,60.2718 "
       id="polygon12" />
    <text
       font-size="6.77333"
       style="font-size:6.77333021px;font-style:normal;font-weight:normal;text-anchor:middle;fill:#000000;font-family:sans-serif"
       x="61.271301"
       y="47.834702"
       id="text14">
      <tspan
         x="61.271301"
         y="47.834702"
         id="tspan16" />
    </text>
  </g>
  <line
     style="fill:none;stroke:#000000;stroke-width:0.60000002"
     x1="76.164803"
     y1="15.481611"
     x2="46.3778"
     y2="15.481611"
     id="line18" />
  <line
     style="fill:none;stroke:#000000;stroke-width:0.60000002"
     x1="91.058197"
     y1="30.035311"
     x2="31.4844"
     y2="30.035311"
     id="line20" />
  <line
     style="fill:none;stroke:#000000;stroke-width:0.60000002"
     x1="105.952"
     y1="44.589111"
     x2="16.591"
     y2="44.589111"
     id="line22" />
  <path
     style="fill:none;stroke:#000000;stroke-width:0.60000002"
     d="M 64.2766,8.5847511 C 80.54,16.716511 87.9646,34.394111 72.4082,28.383711 56.8518,22.373311 48.013,0.45302108 64.2766,8.5847511"
     id="path24"
     inkscape:connector-curvature="0" />
  <g
     id="g26"
     transform="translate(0,-1.1288889)">
    <ellipse
       style="fill:#000000"
       cx="64.983704"
       cy="13.2492"
       rx="2.12132"
       ry="2.12132"
       id="ellipse28"
       sodipodi:cx="64.983704"
       sodipodi:cy="13.2492"
       sodipodi:rx="2.12132"
       sodipodi:ry="2.12132"
       d="m 67.105024,13.2492 c 0,1.171573 -0.949748,2.12132 -2.12132,2.12132 -1.171573,0 -2.12132,-0.949747 -2.12132,-2.12132 0,-1.171573 0.949747,-2.12132 2.12132,-2.12132 1.171572,0 2.12132,0.949747 2.12132,2.12132 z" />
    <ellipse
       style="fill:none;stroke:#000000;stroke-width:0.60000002"
       cx="64.983704"
       cy="13.2492"
       rx="2.12132"
       ry="2.12132"
       id="ellipse30"
       sodipodi:cx="64.983704"
       sodipodi:cy="13.2492"
       sodipodi:rx="2.12132"
       sodipodi:ry="2.12132"
       d="m 67.105024,13.2492 c 0,1.171573 -0.949748,2.12132 -2.12132,2.12132 -1.171573,0 -2.12132,-0.949747 -2.12132,-2.12132 0,-1.171573 0.949747,-2.12132 2.12132,-2.12132 1.171572,0 2.12132,0.949747 2.12132,2.12132 z" />
    <ellipse
       style="fill:none;stroke:#000000;stroke-width:0.60000002"
       cx="64.983704"
       cy="13.2492"
       rx="2.12132"
       ry="2.12132"
       id="ellipse32"
       sodipodi:cx="64.983704"
       sodipodi:cy="13.2492"
       sodipodi:rx="2.12132"
       sodipodi:ry="2.12132"
       d="m 67.105024,13.2492 c 0,1.171573 -0.949748,2.12132 -2.12132,2.12132 -1.171573,0 -2.12132,-0.949747 -2.12132,-2.12132 0,-1.171573 0.949747,-2.12132 2.12132,-2.12132 1.171572,0 2.12132,0.949747 2.12132,2.12132 z" />
  </g>
  <g
     id="g34"
     transform="translate(0,-1.1288889)">
    <ellipse
       style="fill:#000000"
       cx="59.202499"
       cy="13.337"
       rx="2.12132"
       ry="2.12132"
       id="ellipse36"
       sodipodi:cx="59.202499"
       sodipodi:cy="13.337"
       sodipodi:rx="2.12132"
       sodipodi:ry="2.12132"
       d="m 61.323819,13.337 c 0,1.171573 -0.949747,2.12132 -2.12132,2.12132 -1.171572,0 -2.12132,-0.949747 -2.12132,-2.12132 0,-1.171573 0.949748,-2.12132 2.12132,-2.12132 1.171573,0 2.12132,0.949747 2.12132,2.12132 z" />
    <ellipse
       style="fill:none;stroke:#000000;stroke-width:0.60000002"
       cx="59.202499"
       cy="13.337"
       rx="2.12132"
       ry="2.12132"
       id="ellipse38"
       sodipodi:cx="59.202499"
       sodipodi:cy="13.337"
       sodipodi:rx="2.12132"
       sodipodi:ry="2.12132"
       d="m 61.323819,13.337 c 0,1.171573 -0.949747,2.12132 -2.12132,2.12132 -1.171572,0 -2.12132,-0.949747 -2.12132,-2.12132 0,-1.171573 0.949748,-2.12132 2.12132,-2.12132 1.171573,0 2.12132,0.949747 2.12132,2.12132 z" />
    <ellipse
       style="fill:none;stroke:#000000;stroke-width:0.60000002"
       cx="59.202499"
       cy="13.337"
       rx="2.12132"
       ry="2.12132"
       id="ellipse40"
       sodipodi:cx="59.202499"
       sodipodi:cy="13.337"
       sodipodi:rx="2.12132"
       sodipodi:ry="2.12132"
       d="m 61.323819,13.337 c 0,1.171573 -0.949747,2.12132 -2.12132,2.12132 -1.171572,0 -2.12132,-0.949747 -2.12132,-2.12132 0,-1.171573 0.949748,-2.12132 2.12132,-2.12132 1.171573,0 2.12132,0.949747 2.12132,2.12132 z" />
  </g>
  <g
     id="g42"
     transform="translate(0,-1.1288889)">
    <ellipse
       style="fill:#000000"
       cx="76.809502"
       cy="24.792101"
       rx="2.12132"
       ry="2.12132"
       id="ellipse44"
       sodipodi:cx="76.809502"
       sodipodi:cy="24.792101"
       sodipodi:rx="2.12132"
       sodipodi:ry="2.12132"
       d="m 78.930822,24.792101 c 0,1.171573 -0.949748,2.12132 -2.12132,2.12132 -1.171573,0 -2.12132,-0.949747 -2.12132,-2.12132 0,-1.171573 0.949747,-2.12132 2.12132,-2.12132 1.171572,0 2.12132,0.949747 2.12132,2.12132 z" />
    <ellipse
       style="fill:none;stroke:#000000;stroke-width:0.60000002"
       cx="76.809502"
       cy="24.792101"
       rx="2.12132"
       ry="2.12132"
       id="ellipse46"
       sodipodi:cx="76.809502"
       sodipodi:cy="24.792101"
       sodipodi:rx="2.12132"
       sodipodi:ry="2.12132"
       d="m 78.930822,24.792101 c 0,1.171573 -0.949748,2.12132 -2.12132,2.12132 -1.171573,0 -2.12132,-0.949747 -2.12132,-2.12132 0,-1.171573 0.949747,-2.12132 2.12132,-2.12132 1.171572,0 2.12132,0.949747 2.12132,2.12132 z" />
    <ellipse
       style="fill:none;stroke:#000000;stroke-width:0.60000002"
       cx="76.809502"
       cy="24.792101"
       rx="2.12132"
       ry="2.12132"
       id="ellipse48"
       sodipodi:cx="76.809502"
       sodipodi:cy="24.792101"
       sodipodi:rx="2.12132"
       sodipodi:ry="2.12132"
       d="m 78.930822,24.792101 c 0,1.171573 -0.949748,2.12132 -2.12132,2.12132 -1.171573,0 -2.12132,-0.949747 -2.12132,-2.12132 0,-1.171573 0.949747,-2.12132 2.12132,-2.12132 1.171572,0 2.12132,0.949747 2.12132,2.12132 z" />
  </g>
  <g
     id="g50"
     transform="translate(0,-1.1288889)">
    <ellipse
       style="fill:#000000"
       cx="70.728302"
       cy="24.9335"
       rx="2.12132"
       ry="2.12132"
       id="ellipse52"
       sodipodi:cx="70.728302"
       sodipodi:cy="24.9335"
       sodipodi:rx="2.12132"
       sodipodi:ry="2.12132"
       d="m 72.849622,24.9335 c 0,1.171573 -0.949747,2.12132 -2.12132,2.12132 -1.171573,0 -2.12132,-0.949747 -2.12132,-2.12132 0,-1.171572 0.949747,-2.12132 2.12132,-2.12132 1.171573,0 2.12132,0.949748 2.12132,2.12132 z" />
    <ellipse
       style="fill:none;stroke:#000000;stroke-width:0.60000002"
       cx="70.728302"
       cy="24.9335"
       rx="2.12132"
       ry="2.12132"
       id="ellipse54"
       sodipodi:cx="70.728302"
       sodipodi:cy="24.9335"
       sodipodi:rx="2.12132"
       sodipodi:ry="2.12132"
       d="m 72.849622,24.9335 c 0,1.171573 -0.949747,2.12132 -2.12132,2.12132 -1.171573,0 -2.12132,-0.949747 -2.12132,-2.12132 0,-1.171572 0.949747,-2.12132 2.12132,-2.12132 1.171573,0 2.12132,0.949748 2.12132,2.12132 z" />
    <ellipse
       style="fill:none;stroke:#000000;stroke-width:0.60000002"
       cx="70.728302"
       cy="24.9335"
       rx="2.12132"
       ry="2.12132"
       id="ellipse56"
       sodipodi:cx="70.728302"
       sodipodi:cy="24.9335"
       sodipodi:rx="2.12132"
       sodipodi:ry="2.12132"
       d="m 72.849622,24.9335 c 0,1.171573 -0.949747,2.12132 -2.12132,2.12132 -1.171573,0 -2.12132,-0.949747 -2.12132,-2.12132 0,-1.171572 0.949747,-2.12132 2.12132,-2.12132 1.171573,0 2.12132,0.949748 2.12132,2.12132 z" />
  </g>
  <g
     id="g58"
     transform="translate(0,-1.1288889)">
    <ellipse
       style="fill:#000000"
       cx="48.383701"
       cy="25.0749"
       rx="2.12132"
       ry="2.12132"
       id="ellipse60"
       sodipodi:cx="48.383701"
       sodipodi:cy="25.0749"
       sodipodi:rx="2.12132"
       sodipodi:ry="2.12132"
       d="m 50.505021,25.0749 c 0,1.171572 -0.949747,2.12132 -2.12132,2.12132 -1.171572,0 -2.12132,-0.949748 -2.12132,-2.12132 0,-1.171573 0.949748,-2.12132 2.12132,-2.12132 1.171573,0 2.12132,0.949747 2.12132,2.12132 z" />
    <ellipse
       style="fill:none;stroke:#000000;stroke-width:0.60000002"
       cx="48.383701"
       cy="25.0749"
       rx="2.12132"
       ry="2.12132"
       id="ellipse62"
       sodipodi:cx="48.383701"
       sodipodi:cy="25.0749"
       sodipodi:rx="2.12132"
       sodipodi:ry="2.12132"
       d="m 50.505021,25.0749 c 0,1.171572 -0.949747,2.12132 -2.12132,2.12132 -1.171572,0 -2.12132,-0.949748 -2.12132,-2.12132 0,-1.171573 0.949748,-2.12132 2.12132,-2.12132 1.171573,0 2.12132,0.949747 2.12132,2.12132 z" />
    <ellipse
       style="fill:none;stroke:#000000;stroke-width:0.60000002"
       cx="48.383701"
       cy="25.0749"
       rx="2.12132"
       ry="2.12132"
       id="ellipse64"
       sodipodi:cx="48.383701"
       sodipodi:cy="25.0749"
       sodipodi:rx="2.12132"
       sodipodi:ry="2.12132"
       d="m 50.505021,25.0749 c 0,1.171572 -0.949747,2.12132 -2.12132,2.12132 -1.171572,0 -2.12132,-0.949748 -2.12132,-2.12132 0,-1.171573 0.949748,-2.12132 2.12132,-2.12132 1.171573,0 2.12132,0.949747 2.12132,2.12132 z" />
  </g>
  <g
     id="g66"
     transform="translate(0,-1.1288889)">
    <ellipse
       style="fill:#000000"
       cx="53.969898"
       cy="25.216499"
       rx="2.12132"
       ry="2.12132"
       id="ellipse68"
       sodipodi:cx="53.969898"
       sodipodi:cy="25.216499"
       sodipodi:rx="2.12132"
       sodipodi:ry="2.12132"
       d="m 56.091218,25.216499 c 0,1.171573 -0.949747,2.12132 -2.12132,2.12132 -1.171572,0 -2.12132,-0.949747 -2.12132,-2.12132 0,-1.171572 0.949748,-2.12132 2.12132,-2.12132 1.171573,0 2.12132,0.949748 2.12132,2.12132 z" />
    <ellipse
       style="fill:none;stroke:#000000;stroke-width:0.60000002"
       cx="53.969898"
       cy="25.216499"
       rx="2.12132"
       ry="2.12132"
       id="ellipse70"
       sodipodi:cx="53.969898"
       sodipodi:cy="25.216499"
       sodipodi:rx="2.12132"
       sodipodi:ry="2.12132"
       d="m 56.091218,25.216499 c 0,1.171573 -0.949747,2.12132 -2.12132,2.12132 -1.171572,0 -2.12132,-0.949747 -2.12132,-2.12132 0,-1.171572 0.949748,-2.12132 2.12132,-2.12132 1.171573,0 2.12132,0.949748 2.12132,2.12132 z" />
    <ellipse
       style="fill:none;stroke:#000000;stroke-width:0.60000002"
       cx="53.969898"
       cy="25.216499"
       rx="2.12132"
       ry="2.12132"
       id="ellipse72"
       sodipodi:cx="53.969898"
       sodipodi:cy="25.216499"
       sodipodi:rx="2.12132"
       sodipodi:ry="2.12132"
       d="m 56.091218,25.216499 c 0,1.171573 -0.949747,2.12132 -2.12132,2.12132 -1.171572,0 -2.12132,-0.949747 -2.12132,-2.12132 0,-1.171572 0.949748,-2.12132 2.12132,-2.12132 1.171573,0 2.12132,0.949748 2.12132,2.12132 z" />
  </g>
  <path
     style="fill:none;stroke:#000000;stroke-width:0.60000002"
     d="m 55.4376,10.706111 c 17.3242,-10.60663992 17.3242,4.9497 0.7072,15.2028 -16.617,10.253 -18.0312,-4.5962 -0.7072,-15.2028"
     id="path74"
     inkscape:connector-curvature="0" />
  <text
     font-size="6.77333"
     style="font-size:6.77333021px;font-style:normal;font-weight:normal;text-anchor:start;fill:#000000;font-family:Times New Roman"
     x="71.701202"
     y="7.5240908"
     id="text76">
    <tspan
       x="71.701202"
       y="7.5240908"
       id="tspan78">Poids=4</tspan>
  </text>
  <text
     font-size="6.77333"
     style="font-size:6.77333021px;font-style:normal;font-weight:normal;text-anchor:start;fill:#000000;font-family:Times New Roman"
     x="85.065399"
     y="22.20071"
     id="text80">
    <tspan
       x="85.065399"
       y="22.20071"
       id="tspan82">Poids=3</tspan>
  </text>
  <text
     font-size="6.77333"
     style="font-size:6.77333021px;font-style:normal;font-weight:normal;text-anchor:start;fill:#000000;font-family:Times New Roman"
     x="101.258"
     y="36.837914"
     id="text84">
    <tspan
       x="101.258"
       y="36.837914"
       id="tspan86">Poids=2</tspan>
  </text>
  <text
     font-size="6.77333"
     style="font-size:6.77333021px;font-style:normal;font-weight:normal;text-anchor:start;fill:#000000;font-family:Times New Roman"
     x="116.744"
     y="51.121513"
     id="text88">
    <tspan
       x="116.744"
       y="51.121513"
       id="tspan90">Poids=1</tspan>
  </text>
</svg>
