<?xml version="1.0" encoding="UTF-8" standalone="no"?>
<svg
   xmlns:dc="http://purl.org/dc/elements/1.1/"
   xmlns:cc="http://creativecommons.org/ns#"
   xmlns:rdf="http://www.w3.org/1999/02/22-rdf-syntax-ns#"
   xmlns:svg="http://www.w3.org/2000/svg"
   xmlns="http://www.w3.org/2000/svg"
   xmlns:sodipodi="http://sodipodi.sourceforge.net/DTD/sodipodi-0.dtd"
   xmlns:inkscape="http://www.inkscape.org/namespaces/inkscape"
   width="12cm"
   height="8cm"
   viewBox="2 1 229 143"
   id="svg2"
   version="1.1"
   inkscape:version="0.48.3.1 r9886"
   sodipodi:docname="app-ling.svg">
  <metadata
     id="metadata138">
    <rdf:RDF>
      <cc:Work
         rdf:about="">
        <dc:format>image/svg+xml</dc:format>
        <dc:type
           rdf:resource="http://purl.org/dc/dcmitype/StillImage" />
      </cc:Work>
    </rdf:RDF>
  </metadata>
  <defs
     id="defs136" />
  <sodipodi:namedview
     pagecolor="#ffffff"
     bordercolor="#666666"
     borderopacity="1"
     objecttolerance="10"
     gridtolerance="10"
     guidetolerance="10"
     inkscape:pageopacity="0"
     inkscape:pageshadow="2"
     inkscape:window-width="1366"
     inkscape:window-height="713"
     id="namedview134"
     showgrid="false"
     inkscape:zoom="1.4957778"
     inkscape:cx="346.9443"
     inkscape:cy="112.1275"
     inkscape:window-x="-2"
     inkscape:window-y="-3"
     inkscape:window-maximized="1"
     inkscape:current-layer="svg2" />
  <g
     id="g4">
    <path
       style="fill: #ffffff"
       d="M 90.9088 1.34051 L 152.259,1.34051 L 152.259,19.6234 C 139.989,16.5762 133.854,16.5762 121.584,19.6234 C 109.314,22.6705 103.179,22.6705 90.9088,19.6234 L 90.9088,1.34051z"
       id="path6" />
    <path
       style="fill: none; fill-opacity:0; stroke-width: 0.6; stroke: #000000"
       d="M 90.9088 1.34051 L 152.259,1.34051 L 152.259,19.6234 C 139.989,16.5762 133.854,16.5762 121.584,19.6234 C 109.314,22.6705 103.179,22.6705 90.9088,19.6234 L 90.9088,1.34051"
       id="path8" />
    <text
       font-size="6.77333"
       style="fill: #000000;text-anchor:middle;font-family:Times New Roman;font-style:normal;font-weight:normal"
       x="121.584"
       y="11.075"
       id="text10">
      <tspan
         x="121.584"
         y="11.075"
         id="tspan12">document(s) d'entrée</tspan>
    </text>
  </g>
  <g
     id="g14">
    <rect
       style="fill: #ffffff"
       x="60.7194"
       y="32.1576"
       width="121.95"
       height="17.0667"
       id="rect16" />
    <rect
       style="fill: none; fill-opacity:0; stroke-width: 0.6; stroke: #000000"
       x="60.7194"
       y="32.1576"
       width="121.95"
       height="17.0667"
       id="rect18" />
    <text
       font-size="6.77333"
       style="fill: #000000;text-anchor:middle;font-family:Times New Roman;font-style:normal;font-weight:normal"
       x="121.694"
       y="42.5076"
       id="text20">
      <tspan
         x="121.694"
         y="42.5076"
         id="tspan22">Construction de la représentation du texte</tspan>
    </text>
  </g>
  <g
     id="g24">
    <polygon
       style="fill: #ffffff"
       points="104.934,125.768 138.416,125.768 132.204,142.834 98.7227,142.834 "
       id="polygon26" />
    <polygon
       style="fill: none; fill-opacity:0; stroke-width: 0.6; stroke: #000000"
       points="104.934,125.768 138.416,125.768 132.204,142.834 98.7227,142.834 "
       id="polygon28" />
    <text
       font-size="6.77333"
       style="fill: #000000;text-anchor:middle;font-family:Times New Roman;font-style:normal;font-weight:normal"
       x="118.569"
       y="136.118"
       id="text30">
      <tspan
         x="118.569"
         y="136.118"
         id="tspan32">Résumé</tspan>
    </text>
  </g>
  <g
     id="g34">
    <rect
       style="fill: #ffffff"
       x="78.4196"
       y="63.2966"
       width="86.45"
       height="17.6034"
       id="rect36" />
    <rect
       style="fill: none; fill-opacity:0; stroke-width: 0.6; stroke: #000000"
       x="78.4196"
       y="63.2966"
       width="86.45"
       height="17.6034"
       id="rect38" />
    <text
       font-size="6.77333"
       style="fill: #000000;text-anchor:middle;font-family:Times New Roman;font-style:normal;font-weight:normal"
       x="121.645"
       y="73.915"
       id="text40">
      <tspan
         x="121.645"
         y="73.915"
         id="tspan42">Réduction de la représention</tspan>
    </text>
  </g>
  <g
     id="g44">
    <line
       style="fill: none; fill-opacity:0; stroke-width: 0.6; stroke: #000000"
       x1="121.584"
       y1="19.6234"
       x2="121.649"
       y2="26.987"
       id="line46" />
    <polygon
       style="fill: #000000"
       points="121.688,31.4868 118.636,25.5135 121.649,26.987 124.635,25.4606 "
       id="polygon48" />
    <polygon
       style="fill: none; fill-opacity:0; stroke-width: 0.6; stroke: #000000"
       points="121.688,31.4868 118.636,25.5135 121.649,26.987 124.635,25.4606 "
       id="polygon50" />
  </g>
  <text
     font-size="12.4178"
     style="fill: #000000;text-anchor:start;font-family:Times New Roman;font-style:normal;font-weight:normal"
     x="121.584"
     y="12.0055"
     id="text52">
    <tspan
       x="121.584"
       y="12.0055"
       id="tspan54" />
  </text>
  <g
     id="g56">
    <path
       style="fill: #ffffff"
       d="M 3.20034 20.5949 C 11.6368,15.0949 15.855,13.2615 24.2914,13.2615 C 32.7278,13.2615 36.946,15.0949 45.3824,20.5949 L 45.3824,49.9282 C 36.946,55.4282 32.7278,57.2615 24.2914,57.2615 C 15.855,57.2615 11.6368,55.4282 3.20034,49.9282 L 3.20034,20.5949z"
       id="path58" />
    <path
       style="fill: none; fill-opacity:0; stroke-width: 0.6; stroke: #000000"
       d="M 3.20034 20.5949 C 11.6368,15.0949 15.855,13.2615 24.2914,13.2615 C 32.7278,13.2615 36.946,15.0949 45.3824,20.5949 L 45.3824,49.9282 C 36.946,55.4282 32.7278,57.2615 24.2914,57.2615 C 15.855,57.2615 11.6368,55.4282 3.20034,49.9282 L 3.20034,20.5949"
       id="path60" />
    <path
       style="fill: none; fill-opacity:0; stroke-width: 0.6; stroke: #000000"
       d="M 3.20034 20.5949 C 11.6368,26.0949 15.855,27.9282 24.2914,27.9282 C 32.7278,27.9282 36.946,26.0949 45.3824,20.5949"
       id="path62" />
    <text
       font-size="6.77333"
       style="fill: #000000;text-anchor:middle;font-family:Times New Roman;font-style:normal;font-weight:normal"
       x="24.2914"
       y="36.8115"
       id="text64">
      <tspan
         x="24.2914"
         y="36.8115"
         id="tspan66">Base</tspan>
      <tspan
         x="24.2914"
         y="45.2782"
         id="tspan68">Linguistique</tspan>
    </text>
  </g>
  <g
     id="g70">
    <line
       style="fill: none; fill-opacity:0; stroke-width: 0.6; stroke: #000000"
       x1="45.3824"
       y1="40.7615"
       x2="55.5486"
       y2="40.7148"
       id="line72" />
    <polygon
       style="fill: #000000"
       points="60.0486,40.6941 54.0624,43.7216 55.5486,40.7148 54.0349,37.7217 "
       id="polygon74" />
    <polygon
       style="fill: none; fill-opacity:0; stroke-width: 0.6; stroke: #000000"
       points="60.0486,40.6941 54.0624,43.7216 55.5486,40.7148 54.0349,37.7217 "
       id="polygon76" />
  </g>
  <g
     id="g78"
     transform="matrix(0.96761294,0,0,1,6.0681034,0)">
    <path
       style="fill:#ffffff"
       d="m 187.362,51.6621 c 8.834,-5.5816 13.251,-7.4421 22.086,-7.4421 8.834,0 13.251,1.8605 22.086,7.4421 l 0,29.7685 c -8.835,5.5815 -13.252,7.4421 -22.086,7.4421 -8.835,0 -13.252,-1.8606 -22.086,-7.4421 l 0,-29.7685 z"
       id="path80"
       inkscape:connector-curvature="0" />
    <path
       style="fill:none;stroke:#000000;stroke-width:0.60000002"
       d="m 187.362,51.6621 c 8.834,-5.5816 13.251,-7.4421 22.086,-7.4421 8.834,0 13.251,1.8605 22.086,7.4421 l 0,29.7685 c -8.835,5.5815 -13.252,7.4421 -22.086,7.4421 -8.835,0 -13.252,-1.8606 -22.086,-7.4421 l 0,-29.7685"
       id="path82"
       inkscape:connector-curvature="0" />
    <path
       style="fill:none;stroke:#000000;stroke-width:0.60000002"
       d="m 187.362,51.6621 c 8.834,5.5816 13.251,7.4421 22.086,7.4421 8.834,0 13.251,-1.8605 22.086,-7.4421"
       id="path84"
       inkscape:connector-curvature="0" />
    <text
       font-size="6.77333"
       style="font-size:6.77333021px;font-style:normal;font-weight:normal;text-anchor:middle;fill:#000000;font-family:Times New Roman"
       x="209.448"
       y="68.150703"
       id="text86">
      <tspan
         x="209.448"
         y="68.150703"
         id="tspan88">Règles de</tspan>
      <tspan
         x="209.448"
         y="76.617401"
         id="tspan90">réduction</tspan>
    </text>
  </g>
  <g
     id="g92">
    <line
       style="fill: none; fill-opacity:0; stroke-width: 0.6; stroke: #000000"
       x1="187.362"
       y1="72.128"
       x2="170.04"
       y2="72.1051"
       id="line94" />
    <polygon
       style="fill: #000000"
       points="165.54,72.0992 171.544,69.1071 170.04,72.1051 171.536,75.1071 "
       id="polygon96" />
    <polygon
       style="fill: none; fill-opacity:0; stroke-width: 0.6; stroke: #000000"
       points="165.54,72.0992 171.544,69.1071 170.04,72.1051 171.536,75.1071 "
       id="polygon98" />
  </g>
  <g
     id="g100">
    <line
       style="fill: none; fill-opacity:0; stroke-width: 0.6; stroke: #000000"
       x1="121.694"
       y1="49.2244"
       x2="121.663"
       y2="58.1258"
       id="line102" />
    <polygon
       style="fill: #000000"
       points="121.647,62.6258 118.668,56.6152 121.663,58.1258 124.668,56.6364 "
       id="polygon104" />
    <polygon
       style="fill: none; fill-opacity:0; stroke-width: 0.6; stroke: #000000"
       points="121.647,62.6258 118.668,56.6152 121.663,58.1258 124.668,56.6364 "
       id="polygon106" />
  </g>
  <g
     id="g108">
    <rect
       style="fill: #ffffff"
       x="78.4569"
       y="93.3046"
       width="86.45"
       height="17.6034"
       id="rect110" />
    <rect
       style="fill: none; fill-opacity:0; stroke-width: 0.6; stroke: #000000"
       x="78.4569"
       y="93.3046"
       width="86.45"
       height="17.6034"
       id="rect112" />
    <text
       font-size="6.77333"
       style="fill: #000000;text-anchor:middle;font-family:Times New Roman;font-style:normal;font-weight:normal"
       x="121.682"
       y="103.923"
       id="text114">
      <tspan
         x="121.682"
         y="103.923"
         id="tspan116">Génération de résumé</tspan>
    </text>
  </g>
  <g
     id="g118">
    <line
       style="fill: none; fill-opacity:0; stroke-width: 0.6; stroke: #000000"
       x1="121.645"
       y1="80.9"
       x2="121.666"
       y2="88.1338"
       id="line120" />
    <polygon
       style="fill: #000000"
       points="121.68,92.6338 118.662,86.6428 121.666,88.1338 124.662,86.6248 "
       id="polygon122" />
    <polygon
       style="fill: none; fill-opacity:0; stroke-width: 0.6; stroke: #000000"
       points="121.68,92.6338 118.662,86.6428 121.666,88.1338 124.662,86.6248 "
       id="polygon124" />
  </g>
  <g
     id="g126">
    <line
       style="fill: none; fill-opacity:0; stroke-width: 0.6; stroke: #000000"
       x1="121.682"
       y1="110.908"
       x2="121.678"
       y2="120.597"
       id="line128" />
    <polygon
       style="fill: #000000"
       points="121.676,125.097 118.678,119.095 121.678,120.597 124.678,119.098 "
       id="polygon130" />
    <polygon
       style="fill: none; fill-opacity:0; stroke-width: 0.6; stroke: #000000"
       points="121.676,125.097 118.678,119.095 121.678,120.597 124.678,119.098 "
       id="polygon132" />
  </g>
</svg>
