<?xml version="1.0" encoding="UTF-8" standalone="no"?>
<!DOCTYPE svg PUBLIC "-//W3C//DTD SVG 1.0//EN" "http://www.w3.org/TR/2001/PR-SVG-20010719/DTD/svg10.dtd">
<svg width="11cm" height="11cm" viewBox="12 186 212 208" xmlns="http://www.w3.org/2000/svg" xmlns:xlink="http://www.w3.org/1999/xlink">
  <g>
    <rect style="fill: #ffffff" x="42.1302" y="186.584" width="42.7" height="13.0667"/>
    <rect style="fill: none; fill-opacity:0; stroke-width: 0.6; stroke: #000000" x="42.1302" y="186.584" width="42.7" height="13.0667"/>
    <text font-size="6.77333" style="fill: #000000;text-anchor:middle;font-family:Times New Roman;font-style:normal;font-weight:normal" x="63.4802" y="194.934">
      <tspan x="63.4802" y="194.934">Fichier texte</tspan>
    </text>
  </g>
  <g>
    <rect style="fill: #ffffff" x="87.5396" y="203.752" width="64.95" height="13.0667"/>
    <path style="fill: #ffffff" d="M 87.5396,203.752 A 4,4 0 0 0 83.5396,207.752 L 87.5396,207.752 z"/>
    <path style="fill: #ffffff" d="M 156.49,207.752 A 4,4 0 0 0 152.49,203.752 L 152.49,207.752 z"/>
    <rect style="fill: #ffffff" x="83.5396" y="207.752" width="72.95" height="5.06667"/>
    <path style="fill: #ffffff" d="M 83.5396,212.819 A 4,4 0 0 0 87.5396,216.819 L 87.5396,212.819 z"/>
    <path style="fill: #ffffff" d="M 152.49,216.819 A 4,4 0 0 0 156.49,212.819 L 152.49,212.819 z"/>
    <line style="fill: none; fill-opacity:0; stroke-width: 0.6; stroke: #000000" x1="87.5396" y1="203.752" x2="152.49" y2="203.752"/>
    <line style="fill: none; fill-opacity:0; stroke-width: 0.6; stroke: #000000" x1="87.5396" y1="216.819" x2="152.49" y2="216.819"/>
    <path style="fill: none; fill-opacity:0; stroke-width: 0.6; stroke: #000000" d="M 87.5396,203.752 A 4,4 0 0 0 83.5396,207.752"/>
    <path style="fill: none; fill-opacity:0; stroke-width: 0.6; stroke: #000000" d="M 156.49,207.752 A 4,4 0 0 0 152.49,203.752"/>
    <line style="fill: none; fill-opacity:0; stroke-width: 0.6; stroke: #000000" x1="83.5396" y1="207.752" x2="83.5396" y2="212.819"/>
    <line style="fill: none; fill-opacity:0; stroke-width: 0.6; stroke: #000000" x1="156.49" y1="207.752" x2="156.49" y2="212.819"/>
    <path style="fill: none; fill-opacity:0; stroke-width: 0.6; stroke: #000000" d="M 83.5396,212.819 A 4,4 0 0 0 87.5396,216.819"/>
    <path style="fill: none; fill-opacity:0; stroke-width: 0.6; stroke: #000000" d="M 152.49,216.819 A 4,4 0 0 0 156.49,212.819"/>
    <text font-size="6.77333" style="fill: #000000;text-anchor:middle;font-family:Times New Roman;font-style:normal;font-weight:normal" x="120.015" y="212.102">
      <tspan x="120.015" y="212.102">Traitement préliminaire</tspan>
    </text>
  </g>
  <g>
    <rect style="fill: #ffffff" x="87.6452" y="228.086" width="64.95" height="13.0667"/>
    <path style="fill: #ffffff" d="M 87.6452,228.086 A 4,4 0 0 0 83.6452,232.086 L 87.6452,232.086 z"/>
    <path style="fill: #ffffff" d="M 156.595,232.086 A 4,4 0 0 0 152.595,228.086 L 152.595,232.086 z"/>
    <rect style="fill: #ffffff" x="83.6452" y="232.086" width="72.95" height="5.06667"/>
    <path style="fill: #ffffff" d="M 83.6452,237.153 A 4,4 0 0 0 87.6452,241.153 L 87.6452,237.153 z"/>
    <path style="fill: #ffffff" d="M 152.595,241.153 A 4,4 0 0 0 156.595,237.153 L 152.595,237.153 z"/>
    <line style="fill: none; fill-opacity:0; stroke-width: 0.6; stroke: #000000" x1="87.6452" y1="228.086" x2="152.595" y2="228.086"/>
    <line style="fill: none; fill-opacity:0; stroke-width: 0.6; stroke: #000000" x1="87.6452" y1="241.153" x2="152.595" y2="241.153"/>
    <path style="fill: none; fill-opacity:0; stroke-width: 0.6; stroke: #000000" d="M 87.6452,228.086 A 4,4 0 0 0 83.6452,232.086"/>
    <path style="fill: none; fill-opacity:0; stroke-width: 0.6; stroke: #000000" d="M 156.595,232.086 A 4,4 0 0 0 152.595,228.086"/>
    <line style="fill: none; fill-opacity:0; stroke-width: 0.6; stroke: #000000" x1="83.6452" y1="232.086" x2="83.6452" y2="237.153"/>
    <line style="fill: none; fill-opacity:0; stroke-width: 0.6; stroke: #000000" x1="156.595" y1="232.086" x2="156.595" y2="237.153"/>
    <path style="fill: none; fill-opacity:0; stroke-width: 0.6; stroke: #000000" d="M 83.6452,237.153 A 4,4 0 0 0 87.6452,241.153"/>
    <path style="fill: none; fill-opacity:0; stroke-width: 0.6; stroke: #000000" d="M 152.595,241.153 A 4,4 0 0 0 156.595,237.153"/>
    <text font-size="6.77333" style="fill: #000000;text-anchor:middle;font-family:Times New Roman;font-style:normal;font-weight:normal" x="120.12" y="236.436">
      <tspan x="120.12" y="236.436">Pondération</tspan>
    </text>
  </g>
  <g>
    <rect style="fill: #ffffff" x="87.5682" y="251.372" width="64.95" height="13.0667"/>
    <path style="fill: #ffffff" d="M 87.5682,251.372 A 4,4 0 0 0 83.5682,255.372 L 87.5682,255.372 z"/>
    <path style="fill: #ffffff" d="M 156.518,255.372 A 4,4 0 0 0 152.518,251.372 L 152.518,255.372 z"/>
    <rect style="fill: #ffffff" x="83.5682" y="255.372" width="72.95" height="5.06667"/>
    <path style="fill: #ffffff" d="M 83.5682,260.439 A 4,4 0 0 0 87.5682,264.439 L 87.5682,260.439 z"/>
    <path style="fill: #ffffff" d="M 152.518,264.439 A 4,4 0 0 0 156.518,260.439 L 152.518,260.439 z"/>
    <line style="fill: none; fill-opacity:0; stroke-width: 0.6; stroke: #000000" x1="87.5682" y1="251.372" x2="152.518" y2="251.372"/>
    <line style="fill: none; fill-opacity:0; stroke-width: 0.6; stroke: #000000" x1="87.5682" y1="264.439" x2="152.518" y2="264.439"/>
    <path style="fill: none; fill-opacity:0; stroke-width: 0.6; stroke: #000000" d="M 87.5682,251.372 A 4,4 0 0 0 83.5682,255.372"/>
    <path style="fill: none; fill-opacity:0; stroke-width: 0.6; stroke: #000000" d="M 156.518,255.372 A 4,4 0 0 0 152.518,251.372"/>
    <line style="fill: none; fill-opacity:0; stroke-width: 0.6; stroke: #000000" x1="83.5682" y1="255.372" x2="83.5682" y2="260.439"/>
    <line style="fill: none; fill-opacity:0; stroke-width: 0.6; stroke: #000000" x1="156.518" y1="255.372" x2="156.518" y2="260.439"/>
    <path style="fill: none; fill-opacity:0; stroke-width: 0.6; stroke: #000000" d="M 83.5682,260.439 A 4,4 0 0 0 87.5682,264.439"/>
    <path style="fill: none; fill-opacity:0; stroke-width: 0.6; stroke: #000000" d="M 152.518,264.439 A 4,4 0 0 0 156.518,260.439"/>
    <text font-size="6.77333" style="fill: #000000;text-anchor:middle;font-family:Times New Roman;font-style:normal;font-weight:normal" x="120.043" y="259.722">
      <tspan x="120.043" y="259.722">Filtrage</tspan>
    </text>
  </g>
  <g>
    <rect style="fill: #ffffff" x="87.491" y="275.046" width="64.95" height="13.0667"/>
    <path style="fill: #ffffff" d="M 87.491,275.046 A 4,4 0 0 0 83.491,279.046 L 87.491,279.046 z"/>
    <path style="fill: #ffffff" d="M 156.441,279.046 A 4,4 0 0 0 152.441,275.046 L 152.441,279.046 z"/>
    <rect style="fill: #ffffff" x="83.491" y="279.046" width="72.95" height="5.06667"/>
    <path style="fill: #ffffff" d="M 83.491,284.113 A 4,4 0 0 0 87.491,288.113 L 87.491,284.113 z"/>
    <path style="fill: #ffffff" d="M 152.441,288.113 A 4,4 0 0 0 156.441,284.113 L 152.441,284.113 z"/>
    <line style="fill: none; fill-opacity:0; stroke-width: 0.6; stroke: #000000" x1="87.491" y1="275.046" x2="152.441" y2="275.046"/>
    <line style="fill: none; fill-opacity:0; stroke-width: 0.6; stroke: #000000" x1="87.491" y1="288.113" x2="152.441" y2="288.113"/>
    <path style="fill: none; fill-opacity:0; stroke-width: 0.6; stroke: #000000" d="M 87.491,275.046 A 4,4 0 0 0 83.491,279.046"/>
    <path style="fill: none; fill-opacity:0; stroke-width: 0.6; stroke: #000000" d="M 156.441,279.046 A 4,4 0 0 0 152.441,275.046"/>
    <line style="fill: none; fill-opacity:0; stroke-width: 0.6; stroke: #000000" x1="83.491" y1="279.046" x2="83.491" y2="284.113"/>
    <line style="fill: none; fill-opacity:0; stroke-width: 0.6; stroke: #000000" x1="156.441" y1="279.046" x2="156.441" y2="284.113"/>
    <path style="fill: none; fill-opacity:0; stroke-width: 0.6; stroke: #000000" d="M 83.491,284.113 A 4,4 0 0 0 87.491,288.113"/>
    <path style="fill: none; fill-opacity:0; stroke-width: 0.6; stroke: #000000" d="M 152.441,288.113 A 4,4 0 0 0 156.441,284.113"/>
    <text font-size="6.77333" style="fill: #000000;text-anchor:middle;font-family:Times New Roman;font-style:normal;font-weight:normal" x="119.966" y="283.396">
      <tspan x="119.966" y="283.396">Reconnaissance</tspan>
    </text>
  </g>
  <g>
    <rect style="fill: #ffffff" x="81.7501" y="304.132" width="76.4" height="21.5333"/>
    <path style="fill: #ffffff" d="M 81.7501,304.132 A 4,4 0 0 0 77.7501,308.132 L 81.7501,308.132 z"/>
    <path style="fill: #ffffff" d="M 162.15,308.132 A 4,4 0 0 0 158.15,304.132 L 158.15,308.132 z"/>
    <rect style="fill: #ffffff" x="77.7501" y="308.132" width="84.4" height="13.5333"/>
    <path style="fill: #ffffff" d="M 77.7501,321.665 A 4,4 0 0 0 81.7501,325.665 L 81.7501,321.665 z"/>
    <path style="fill: #ffffff" d="M 158.15,325.665 A 4,4 0 0 0 162.15,321.665 L 158.15,321.665 z"/>
    <line style="fill: none; fill-opacity:0; stroke-width: 0.6; stroke: #000000" x1="81.7501" y1="304.132" x2="158.15" y2="304.132"/>
    <line style="fill: none; fill-opacity:0; stroke-width: 0.6; stroke: #000000" x1="81.7501" y1="325.665" x2="158.15" y2="325.665"/>
    <path style="fill: none; fill-opacity:0; stroke-width: 0.6; stroke: #000000" d="M 81.7501,304.132 A 4,4 0 0 0 77.7501,308.132"/>
    <path style="fill: none; fill-opacity:0; stroke-width: 0.6; stroke: #000000" d="M 162.15,308.132 A 4,4 0 0 0 158.15,304.132"/>
    <line style="fill: none; fill-opacity:0; stroke-width: 0.6; stroke: #000000" x1="77.7501" y1="308.132" x2="77.7501" y2="321.665"/>
    <line style="fill: none; fill-opacity:0; stroke-width: 0.6; stroke: #000000" x1="162.15" y1="308.132" x2="162.15" y2="321.665"/>
    <path style="fill: none; fill-opacity:0; stroke-width: 0.6; stroke: #000000" d="M 77.7501,321.665 A 4,4 0 0 0 81.7501,325.665"/>
    <path style="fill: none; fill-opacity:0; stroke-width: 0.6; stroke: #000000" d="M 158.15,325.665 A 4,4 0 0 0 162.15,321.665"/>
    <text font-size="6.77333" style="fill: #000000;text-anchor:middle;font-family:Times New Roman;font-style:normal;font-weight:normal" x="119.95" y="312.482">
      <tspan x="119.95" y="312.482">sélectionnement </tspan>
      <tspan x="119.95" y="320.949">d'algorithme de résumé</tspan>
    </text>
  </g>
  <g>
    <rect style="fill: #ffffff" x="12.3182" y="247.12" width="42.7" height="21.5333"/>
    <rect style="fill: none; fill-opacity:0; stroke-width: 0.6; stroke: #000000" x="12.3182" y="247.12" width="42.7" height="21.5333"/>
    <text font-size="6.77333" style="fill: #000000;text-anchor:middle;font-family:Times New Roman;font-style:normal;font-weight:normal" x="33.6682" y="255.47">
      <tspan x="33.6682" y="255.47">Base </tspan>
      <tspan x="33.6682" y="263.937">Linguistique</tspan>
    </text>
  </g>
  <g>
    <rect style="fill: #ffffff" x="168.077" y="361.64" width="42.7" height="13.0667"/>
    <rect style="fill: none; fill-opacity:0; stroke-width: 0.6; stroke: #000000" x="168.077" y="361.64" width="42.7" height="13.0667"/>
    <text font-size="6.77333" style="fill: #000000;text-anchor:middle;font-family:Times New Roman;font-style:normal;font-weight:normal" x="189.427" y="369.99">
      <tspan x="189.427" y="369.99">Résumé</tspan>
    </text>
  </g>
  <g>
    <polyline style="fill: none; fill-opacity:0; stroke-width: 0.6; stroke: #000000" points="33.6682,247.12 33.6682,210.285 78.3688,210.285 "/>
    <polygon style="fill: #000000" points="82.8688,210.285 76.8688,213.285 78.3688,210.285 76.8688,207.285 "/>
    <polygon style="fill: none; fill-opacity:0; stroke-width: 0.6; stroke: #000000" points="82.8688,210.285 76.8688,213.285 78.3688,210.285 76.8688,207.285 "/>
  </g>
  <g>
    <rect style="fill: #ffffff" x="76.3912" y="343.81" width="27.2479" height="13.0667"/>
    <path style="fill: #ffffff" d="M 76.3912,343.81 A 4,4 0 0 0 72.3912,347.81 L 76.3912,347.81 z"/>
    <path style="fill: #ffffff" d="M 107.639,347.81 A 4,4 0 0 0 103.639,343.81 L 103.639,347.81 z"/>
    <rect style="fill: #ffffff" x="72.3912" y="347.81" width="35.2479" height="5.06667"/>
    <path style="fill: #ffffff" d="M 72.3912,352.877 A 4,4 0 0 0 76.3912,356.877 L 76.3912,352.877 z"/>
    <path style="fill: #ffffff" d="M 103.639,356.877 A 4,4 0 0 0 107.639,352.877 L 103.639,352.877 z"/>
    <line style="fill: none; fill-opacity:0; stroke-width: 0.6; stroke: #000000" x1="76.3912" y1="343.81" x2="103.639" y2="343.81"/>
    <line style="fill: none; fill-opacity:0; stroke-width: 0.6; stroke: #000000" x1="76.3912" y1="356.877" x2="103.639" y2="356.877"/>
    <path style="fill: none; fill-opacity:0; stroke-width: 0.6; stroke: #000000" d="M 76.3912,343.81 A 4,4 0 0 0 72.3912,347.81"/>
    <path style="fill: none; fill-opacity:0; stroke-width: 0.6; stroke: #000000" d="M 107.639,347.81 A 4,4 0 0 0 103.639,343.81"/>
    <line style="fill: none; fill-opacity:0; stroke-width: 0.6; stroke: #000000" x1="72.3912" y1="347.81" x2="72.3912" y2="352.877"/>
    <line style="fill: none; fill-opacity:0; stroke-width: 0.6; stroke: #000000" x1="107.639" y1="347.81" x2="107.639" y2="352.877"/>
    <path style="fill: none; fill-opacity:0; stroke-width: 0.6; stroke: #000000" d="M 72.3912,352.877 A 4,4 0 0 0 76.3912,356.877"/>
    <path style="fill: none; fill-opacity:0; stroke-width: 0.6; stroke: #000000" d="M 103.639,356.877 A 4,4 0 0 0 107.639,352.877"/>
    <text font-size="6.77333" style="fill: #000000;text-anchor:middle;font-family:Times New Roman;font-style:normal;font-weight:normal" x="90.0151" y="352.16">
      <tspan x="90.0151" y="352.16">Genre 1</tspan>
    </text>
  </g>
  <g>
    <rect style="fill: #ffffff" x="118.658" y="380.021" width="27.2479" height="13.0667"/>
    <path style="fill: #ffffff" d="M 118.658,380.021 A 4,4 0 0 0 114.658,384.021 L 118.658,384.021 z"/>
    <path style="fill: #ffffff" d="M 149.905,384.021 A 4,4 0 0 0 145.905,380.021 L 145.905,384.021 z"/>
    <rect style="fill: #ffffff" x="114.658" y="384.021" width="35.2479" height="5.06667"/>
    <path style="fill: #ffffff" d="M 114.658,389.088 A 4,4 0 0 0 118.658,393.088 L 118.658,389.088 z"/>
    <path style="fill: #ffffff" d="M 145.905,393.088 A 4,4 0 0 0 149.905,389.088 L 145.905,389.088 z"/>
    <line style="fill: none; fill-opacity:0; stroke-width: 0.6; stroke: #000000" x1="118.658" y1="380.021" x2="145.905" y2="380.021"/>
    <line style="fill: none; fill-opacity:0; stroke-width: 0.6; stroke: #000000" x1="118.658" y1="393.088" x2="145.905" y2="393.088"/>
    <path style="fill: none; fill-opacity:0; stroke-width: 0.6; stroke: #000000" d="M 118.658,380.021 A 4,4 0 0 0 114.658,384.021"/>
    <path style="fill: none; fill-opacity:0; stroke-width: 0.6; stroke: #000000" d="M 149.905,384.021 A 4,4 0 0 0 145.905,380.021"/>
    <line style="fill: none; fill-opacity:0; stroke-width: 0.6; stroke: #000000" x1="114.658" y1="384.021" x2="114.658" y2="389.088"/>
    <line style="fill: none; fill-opacity:0; stroke-width: 0.6; stroke: #000000" x1="149.905" y1="384.021" x2="149.905" y2="389.088"/>
    <path style="fill: none; fill-opacity:0; stroke-width: 0.6; stroke: #000000" d="M 114.658,389.088 A 4,4 0 0 0 118.658,393.088"/>
    <path style="fill: none; fill-opacity:0; stroke-width: 0.6; stroke: #000000" d="M 145.905,393.088 A 4,4 0 0 0 149.905,389.088"/>
    <text font-size="6.77333" style="fill: #000000;text-anchor:middle;font-family:Times New Roman;font-style:normal;font-weight:normal" x="132.282" y="388.371">
      <tspan x="132.282" y="388.371">Genre 3</tspan>
    </text>
  </g>
  <g>
    <rect style="fill: #ffffff" x="97.6322" y="361.48" width="27.2479" height="13.0667"/>
    <path style="fill: #ffffff" d="M 97.6322,361.48 A 4,4 0 0 0 93.6322,365.48 L 97.6322,365.48 z"/>
    <path style="fill: #ffffff" d="M 128.88,365.48 A 4,4 0 0 0 124.88,361.48 L 124.88,365.48 z"/>
    <rect style="fill: #ffffff" x="93.6322" y="365.48" width="35.2479" height="5.06667"/>
    <path style="fill: #ffffff" d="M 93.6322,370.547 A 4,4 0 0 0 97.6322,374.547 L 97.6322,370.547 z"/>
    <path style="fill: #ffffff" d="M 124.88,374.547 A 4,4 0 0 0 128.88,370.547 L 124.88,370.547 z"/>
    <line style="fill: none; fill-opacity:0; stroke-width: 0.6; stroke: #000000" x1="97.6322" y1="361.48" x2="124.88" y2="361.48"/>
    <line style="fill: none; fill-opacity:0; stroke-width: 0.6; stroke: #000000" x1="97.6322" y1="374.547" x2="124.88" y2="374.547"/>
    <path style="fill: none; fill-opacity:0; stroke-width: 0.6; stroke: #000000" d="M 97.6322,361.48 A 4,4 0 0 0 93.6322,365.48"/>
    <path style="fill: none; fill-opacity:0; stroke-width: 0.6; stroke: #000000" d="M 128.88,365.48 A 4,4 0 0 0 124.88,361.48"/>
    <line style="fill: none; fill-opacity:0; stroke-width: 0.6; stroke: #000000" x1="93.6322" y1="365.48" x2="93.6322" y2="370.547"/>
    <line style="fill: none; fill-opacity:0; stroke-width: 0.6; stroke: #000000" x1="128.88" y1="365.48" x2="128.88" y2="370.547"/>
    <path style="fill: none; fill-opacity:0; stroke-width: 0.6; stroke: #000000" d="M 93.6322,370.547 A 4,4 0 0 0 97.6322,374.547"/>
    <path style="fill: none; fill-opacity:0; stroke-width: 0.6; stroke: #000000" d="M 124.88,374.547 A 4,4 0 0 0 128.88,370.547"/>
    <text font-size="6.77333" style="fill: #000000;text-anchor:middle;font-family:Times New Roman;font-style:normal;font-weight:normal" x="111.256" y="369.83">
      <tspan x="111.256" y="369.83">Genre 2</tspan>
    </text>
  </g>
  <g>
    <polyline style="fill: none; fill-opacity:0; stroke-width: 0.6; stroke: #000000" points="107.639,350.344 123,350.344 123,350.236 189.427,350.236 189.427,356.469 "/>
    <polygon style="fill: #000000" points="189.427,360.969 186.427,354.969 189.427,356.469 192.427,354.969 "/>
    <polygon style="fill: none; fill-opacity:0; stroke-width: 0.6; stroke: #000000" points="189.427,360.969 186.427,354.969 189.427,356.469 192.427,354.969 "/>
  </g>
  <g>
    <polyline style="fill: none; fill-opacity:0; stroke-width: 0.6; stroke: #000000" points="149.905,386.554 165.106,386.554 165.106,386.478 189.427,386.478 189.427,379.877 "/>
    <polygon style="fill: #000000" points="189.427,375.377 192.427,381.377 189.427,379.877 186.427,381.377 "/>
    <polygon style="fill: none; fill-opacity:0; stroke-width: 0.6; stroke: #000000" points="189.427,375.377 192.427,381.377 189.427,379.877 186.427,381.377 "/>
  </g>
  <g>
    <polyline style="fill: none; fill-opacity:0; stroke-width: 0.6; stroke: #000000" points="128.88,368.013 148.478,368.013 148.478,368.173 162.906,368.173 "/>
    <polygon style="fill: #000000" points="167.406,368.173 161.406,371.173 162.906,368.173 161.406,365.173 "/>
    <polygon style="fill: none; fill-opacity:0; stroke-width: 0.6; stroke: #000000" points="167.406,368.173 161.406,371.173 162.906,368.173 161.406,365.173 "/>
  </g>
  <g>
    <polyline style="fill: none; fill-opacity:0; stroke-width: 0.6; stroke: #000000" points="44.3432,268.654 44.3432,350.344 67.2204,350.344 "/>
    <polygon style="fill: #000000" points="71.7204,350.344 65.7204,353.344 67.2204,350.344 65.7204,347.344 "/>
    <polygon style="fill: none; fill-opacity:0; stroke-width: 0.6; stroke: #000000" points="71.7204,350.344 65.7204,353.344 67.2204,350.344 65.7204,347.344 "/>
  </g>
  <g>
    <polyline style="fill: none; fill-opacity:0; stroke-width: 0.6; stroke: #000000" points="33.6682,268.654 33.6682,368.013 88.4614,368.013 "/>
    <polygon style="fill: #000000" points="92.9614,368.013 86.9614,371.013 88.4614,368.013 86.9614,365.013 "/>
    <polygon style="fill: none; fill-opacity:0; stroke-width: 0.6; stroke: #000000" points="92.9614,368.013 86.9614,371.013 88.4614,368.013 86.9614,365.013 "/>
  </g>
  <g>
    <polyline style="fill: none; fill-opacity:0; stroke-width: 0.6; stroke: #000000" points="22.9932,268.654 22.9932,386.554 109.487,386.554 "/>
    <polygon style="fill: #000000" points="113.987,386.554 107.987,389.554 109.487,386.554 107.987,383.554 "/>
    <polygon style="fill: none; fill-opacity:0; stroke-width: 0.6; stroke: #000000" points="113.987,386.554 107.987,389.554 109.487,386.554 107.987,383.554 "/>
  </g>
  <g>
    <polyline style="fill: none; fill-opacity:0; stroke-width: 0.6; stroke: #000000" points="55.0182,263.27 69.2546,263.27 69.2546,281.579 78.3202,281.579 "/>
    <polygon style="fill: #000000" points="82.8202,281.579 76.8202,284.579 78.3202,281.579 76.8202,278.579 "/>
    <polygon style="fill: none; fill-opacity:0; stroke-width: 0.6; stroke: #000000" points="82.8202,281.579 76.8202,284.579 78.3202,281.579 76.8202,278.579 "/>
  </g>
  <g>
    <polyline style="fill: none; fill-opacity:0; stroke-width: 0.6; stroke: #000000" points="55.0182,257.887 69.2932,257.887 69.2932,257.905 78.3974,257.905 "/>
    <polygon style="fill: #000000" points="82.8974,257.905 76.8974,260.905 78.3974,257.905 76.8974,254.905 "/>
    <polygon style="fill: none; fill-opacity:0; stroke-width: 0.6; stroke: #000000" points="82.8974,257.905 76.8974,260.905 78.3974,257.905 76.8974,254.905 "/>
  </g>
  <g>
    <polyline style="fill: none; fill-opacity:0; stroke-width: 0.6; stroke: #000000" points="55.0182,252.504 69.3317,252.504 69.3317,234.619 78.4744,234.619 "/>
    <polygon style="fill: #000000" points="82.9744,234.619 76.9744,237.619 78.4744,234.619 76.9744,231.619 "/>
    <polygon style="fill: none; fill-opacity:0; stroke-width: 0.6; stroke: #000000" points="82.9744,234.619 76.9744,237.619 78.4744,234.619 76.9744,231.619 "/>
  </g>
  <g>
    <polyline style="fill: none; fill-opacity:0; stroke-width: 0.6; stroke: #000000" points="156.49,210.285 178.784,210.285 178.784,314.899 167.321,314.899 "/>
    <polygon style="fill: #000000" points="162.821,314.899 168.821,311.899 167.321,314.899 168.821,317.899 "/>
    <polygon style="fill: none; fill-opacity:0; stroke-width: 0.6; stroke: #000000" points="162.821,314.899 168.821,311.899 167.321,314.899 168.821,317.899 "/>
  </g>
  <g>
    <line style="fill: none; fill-opacity:0; stroke-width: 0.6; stroke: #000000" x1="120.015" y1="216.818" x2="120.072" y2="222.915"/>
    <polygon style="fill: #000000" points="120.114,227.415 117.058,221.444 120.072,222.915 123.058,221.387 "/>
    <polygon style="fill: none; fill-opacity:0; stroke-width: 0.6; stroke: #000000" points="120.114,227.415 117.058,221.444 120.072,222.915 123.058,221.387 "/>
  </g>
  <g>
    <line style="fill: none; fill-opacity:0; stroke-width: 0.6; stroke: #000000" x1="120.12" y1="241.152" x2="120.082" y2="246.201"/>
    <polygon style="fill: #000000" points="120.048,250.701 117.094,244.679 120.082,246.201 123.093,244.724 "/>
    <polygon style="fill: none; fill-opacity:0; stroke-width: 0.6; stroke: #000000" points="120.048,250.701 117.094,244.679 120.082,246.201 123.093,244.724 "/>
  </g>
  <g>
    <line style="fill: none; fill-opacity:0; stroke-width: 0.6; stroke: #000000" x1="120.043" y1="264.44" x2="120.004" y2="269.875"/>
    <polygon style="fill: #000000" points="119.971,274.375 117.015,268.354 120.004,269.875 123.014,268.397 "/>
    <polygon style="fill: none; fill-opacity:0; stroke-width: 0.6; stroke: #000000" points="119.971,274.375 117.015,268.354 120.004,269.875 123.014,268.397 "/>
  </g>
  <g>
    <line style="fill: none; fill-opacity:0; stroke-width: 0.6; stroke: #000000" x1="119.966" y1="288.112" x2="119.955" y2="298.961"/>
    <polygon style="fill: #000000" points="119.951,303.461 116.957,297.458 119.955,298.961 122.957,297.464 "/>
    <polygon style="fill: none; fill-opacity:0; stroke-width: 0.6; stroke: #000000" points="119.951,303.461 116.957,297.458 119.955,298.961 122.957,297.464 "/>
  </g>
  <g>
    <line style="fill: none; fill-opacity:0; stroke-width: 0.6; stroke: #000000" x1="98.8501" y1="325.665" x2="98.8337" y2="338.639"/>
    <polygon style="fill: #000000" points="98.8279,343.139 95.8356,337.136 98.8337,338.639 101.836,337.143 "/>
    <polygon style="fill: none; fill-opacity:0; stroke-width: 0.6; stroke: #000000" points="98.8279,343.139 95.8356,337.136 98.8337,338.639 101.836,337.143 "/>
  </g>
  <g>
    <path style="fill: none; fill-opacity:0; stroke-width: 0.6; stroke: #000000" d="M 116.402,200.115 A 34.0254,34.0254 0 0 0 84.8302,193.117"/>
    <polygon style="fill: #000000" points="119.579,203.242 113.402,200.627 116.657,199.819 117.965,196.731 "/>
    <polygon style="fill: none; fill-opacity:0; stroke-width: 0.6; stroke: #000000" points="119.579,203.242 113.402,200.627 116.657,199.819 117.965,196.731 "/>
  </g>
  <text font-size="6.77333" style="fill: #000000;text-anchor:start;font-family:Times New Roman;font-style:normal;font-weight:normal" x="106.17" y="194.088">
    <tspan x="106.17" y="194.088">Texte</tspan>
  </text>
  <text font-size="6.77333" style="fill: #000000;text-anchor:start;font-family:Times New Roman;font-style:normal;font-weight:normal" x="124.985" y="224.196">
    <tspan x="124.985" y="224.196">Modèle d'objet</tspan>
  </text>
  <text font-size="6.77333" style="fill: #000000;text-anchor:start;font-family:Times New Roman;font-style:normal;font-weight:normal" x="182.895" y="256.934">
    <tspan x="182.895" y="256.934">Modèle d'objet</tspan>
  </text>
  <text font-size="6.77333" style="fill: #000000;text-anchor:start;font-family:Times New Roman;font-style:normal;font-weight:normal" x="124.908" y="248.256">
    <tspan x="124.908" y="248.256">Paramètres</tspan>
  </text>
  <text font-size="6.77333" style="fill: #000000;text-anchor:start;font-family:Times New Roman;font-style:normal;font-weight:normal" x="86.4296" y="272.006">
    <tspan x="86.4296" y="272.006">Paramètres</tspan>
  </text>
  <text font-size="6.77333" style="fill: #000000;text-anchor:start;font-family:Times New Roman;font-style:normal;font-weight:normal" x="126.064" y="297.22">
    <tspan x="126.064" y="297.22">Genre</tspan>
  </text>
  <text font-size="6.77333" style="fill: #000000;text-anchor:start;font-family:Times New Roman;font-style:normal;font-weight:normal" x="98.8386" y="334.738">
    <tspan x="98.8386" y="334.738">Modèle d'objet</tspan>
  </text>
  <g>
    <line style="fill: none; fill-opacity:0; stroke-width: 0.6; stroke: #000000" x1="119.95" y1="325.665" x2="120.051" y2="356.309"/>
    <polygon style="fill: #000000" points="120.066,360.809 117.046,354.819 120.051,356.309 123.046,354.799 "/>
    <polygon style="fill: none; fill-opacity:0; stroke-width: 0.6; stroke: #000000" points="120.066,360.809 117.046,354.819 120.051,356.309 123.046,354.799 "/>
  </g>
  <g>
    <line style="fill: none; fill-opacity:0; stroke-width: 0.6; stroke: #000000" x1="141.05" y1="325.665" x2="141.089" y2="374.85"/>
    <polygon style="fill: #000000" points="141.093,379.35 138.088,373.353 141.089,374.85 144.088,373.348 "/>
    <polygon style="fill: none; fill-opacity:0; stroke-width: 0.6; stroke: #000000" points="141.093,379.35 138.088,373.353 141.089,374.85 144.088,373.348 "/>
  </g>
  <text font-size="6.77333" style="fill: #000000;text-anchor:start;font-family:Times New Roman;font-style:normal;font-weight:normal" x="124.393" y="272.104">
    <tspan x="124.393" y="272.104">Sélectionnés</tspan>
  </text>
</svg>
